<svg width="354" height="354" viewBox="0 0 354 354" fill="none" xmlns="http://www.w3.org/2000/svg">
<path d="M212.006 160.514L214.898 177.241C215.62 181.419 212.408 185.24 208.174 185.24H186.935C184.83 185.24 183.227 187.13 183.568 189.209L186.284 205.792C186.726 208.486 186.6 211.243 185.914 213.885C185.346 216.074 183.658 217.832 181.437 218.545L180.843 218.736C179.501 219.167 178.036 219.067 176.771 218.457C175.378 217.786 174.359 216.562 173.981 215.106L172.031 207.587C171.411 205.195 170.507 202.885 169.342 200.703C167.639 197.515 165.007 194.964 162.27 192.606L156.372 187.522C154.71 186.089 153.836 183.943 154.025 181.754L157.355 143.244C157.66 139.712 160.613 137 164.154 137H183.21C197.481 137 209.66 146.945 212.006 160.514Z" fill="white" fill-opacity="0.76"/>
<path opacity="0.5" fill-rule="evenodd" clip-rule="evenodd" d="M141.192 189.997C142.976 190.07 144.504 188.796 144.658 187.107L148.979 139.673C149.257 136.626 146.728 134 143.5 134C140.459 134 138 136.342 138 139.223V186.834C138 188.529 139.407 189.924 141.192 189.997Z" fill="white" fill-opacity="0.76"/>
</svg>
