<svg width="354" height="354" viewBox="0 0 354 354" fill="none" xmlns="http://www.w3.org/2000/svg">
<path d="M213.859 193.339L216.893 175.796C217.651 171.415 214.281 167.407 209.838 167.407H187.555C185.346 167.407 183.664 165.425 184.022 163.244L186.872 145.852C187.335 143.027 187.203 140.136 186.484 137.364C185.888 135.069 184.116 133.225 181.787 132.477L181.163 132.277C179.755 131.824 178.218 131.93 176.89 132.569C175.429 133.273 174.36 134.557 173.964 136.085L171.918 143.97C171.267 146.479 170.319 148.901 169.096 151.189C167.31 154.533 164.548 157.209 161.677 159.682L155.489 165.013C153.744 166.517 152.828 168.768 153.027 171.063L156.52 211.452C156.84 215.156 159.938 218 163.653 218H183.646C198.619 218 211.397 207.57 213.859 193.339Z" fill="white" fill-opacity="0.76"/>
<path opacity="0.5" fill-rule="evenodd" clip-rule="evenodd" d="M139.192 165.003C140.976 164.929 142.504 166.226 142.658 167.945L146.979 216.226C147.257 219.327 144.728 222 141.5 222C138.459 222 136 219.616 136 216.684V168.223C136 166.497 137.407 165.077 139.192 165.003Z" fill="white" fill-opacity="0.76"/>
</svg>
